<svg width="48" height="48" viewBox="0 0 48 48" fill="none" xmlns="http://www.w3.org/2000/svg">
<path d="M25.4601 22.9455V22.8803C25.4465 22.9023 25.4321 22.9243 25.4177 22.9455H25.4601Z" fill="black"/>
<path d="M41.711 3.95139H6.04943C4.34255 3.95139 2.95825 5.30266 2.95825 6.96805V43.047C2.95825 44.7115 4.34255 46.0628 6.04943 46.0628H41.711C43.4204 46.0628 44.8047 44.7107 44.8047 43.047V6.96805C44.8047 5.30182 43.4195 3.95139 41.711 3.95139ZM15.6421 39.204H9.32179V20.1887H15.6421V39.204ZM12.4824 17.5912H12.4401C10.32 17.5912 8.94841 16.1307 8.94841 14.3061C8.94841 12.4409 10.3623 11.021 12.5239 11.021C14.6863 11.021 16.0164 12.4409 16.0587 14.3061C16.0587 16.1307 14.6854 17.5912 12.4824 17.5912ZM38.4335 39.204H32.1132V29.0288C32.1132 26.4735 31.1988 24.7294 28.9119 24.7294C27.1661 24.7294 26.1264 25.9054 25.6684 27.0416C25.5016 27.4472 25.4609 28.0145 25.4609 28.5834V39.2031H19.1406C19.1406 39.2031 19.2235 21.9701 19.1406 20.1879H25.4609V22.8794C26.3008 21.584 27.8028 19.7392 31.1581 19.7392C35.3161 19.7392 38.4344 22.4578 38.4344 28.2989L38.4335 39.204Z" fill="black"/>
</svg>

