<svg width="48" height="48" viewBox="0 0 48 48" fill="none" xmlns="http://www.w3.org/2000/svg">
<path d="M31.2 6.60001C28.4 6.60001 26 7.60001 24 9.60001L19.6 14C18.8 14.8 18.8 16 19.6 16.8C20.4 17.6 21.6 17.6 22.4 16.8L26.8 12.4C29.2 10 33.2 10 35.6 12.4C36.8 13.6 37.4 15.2 37.4 16.8C37.4 18.4 36.8 20 35.6 21.2L31.2 25.6C30.4 26.4 30.4 27.6 31.2 28.4C31.6 28.8 32.2 29 32.6 29C33 29 33.6 28.8 34 28.4L38.4 24C40.4 22 41.4 19.6 41.4 16.8C41.4 14 40.4 11.6 38.4 9.60001C36.4 7.60001 34 6.60001 31.2 6.60001Z" fill="black"/>
<path d="M16.8 22.6C17.6 21.8 17.6 20.6 16.8 19.8C16 19 14.8 19 14 19.8L9.59998 24C7.59998 26 6.59998 28.4 6.59998 31.2C6.59998 34 7.59998 36.4 9.59998 38.4C11.6 40.4 14 41.4 16.8 41.4C19.6 41.4 22 40.4 24 38.4L28.4 34C29.2 33.2 29.2 32 28.4 31.2C27.6 30.4 26.4 30.4 25.6 31.2L21.2 35.6C18.8 38 14.8 38 12.4 35.6C11.2 34.4 10.6 32.8 10.6 31.2C10.6 29.6 11.2 28 12.4 26.8L16.8 22.6Z" fill="black"/>
<path d="M18.2 29.8C18.6 30.2 19.2 30.4 19.6 30.4C20 30.4 20.6 30.2 21 29.8L29.6 21.2C30.4 20.4 30.4 19.2 29.6 18.4C28.8 17.6 27.6 17.6 26.8 18.4L18.2 27C17.4 27.6 17.4 29 18.2 29.8Z" fill="black"/>
</svg>
