<svg width="52" height="40" viewBox="0 0 52 40" fill="none" xmlns="http://www.w3.org/2000/svg">
<path d="M2.28496 0.0865173C0.990149 0.0865173 0 1.16751 0 2.58111V37.5054C0 38.919 0.990149 40 2.28496 40H49.5074C50.8022 40 51.7924 38.919 51.7924 37.5054V2.58111C51.7924 1.16751 50.8022 0.0865173 49.5074 0.0865173H2.28496Z" fill="black"/>
<path d="M25.5915 19.877C24.6014 19.877 23.6874 19.5443 22.8496 18.9623L0.304641 1.99904C0.0761451 1.83274 -2.00653e-05 1.50012 0.152311 1.25067L0.456972 0.751747C0.609303 0.502287 0.913964 0.419135 1.14246 0.585441L23.6874 17.4655C24.8299 18.3802 26.3532 18.297 27.4195 17.4655L50.1167 0.0865226C50.3452 -0.0797836 50.6499 0.00336853 50.8022 0.252828L51.1069 0.751747C51.2592 1.00121 51.1831 1.33382 50.9546 1.50012L28.3335 18.8791C27.4956 19.5443 26.5055 19.877 25.5915 19.877Z" fill="white"/>
</svg>
